# 3ds Max Wavefront OBJ Exporter v0.97b - (c)2007 guruware
# File Created: 17.07.2018 15:41:46

mtllib FedTurretStand.mtl

#
# object FedTurretStand
#

v  -56.8565 0.0000 56.8565
v  -56.8565 0.0000 -56.8565
v  56.8565 0.0000 -56.8565
v  56.8565 0.0000 56.8565
v  -10.7773 56.7533 10.7773
v  10.7773 56.7533 10.7773
v  10.7773 56.7533 -10.7773
v  -10.7773 56.7533 -10.7773
v  56.8565 30.9147 56.8565
v  -56.8565 30.9147 56.8565
v  56.8565 30.9147 -56.8565
v  -56.8565 30.9147 -56.8565
v  38.9663 30.9147 38.9663
v  -38.9663 30.9147 38.9663
v  38.9663 30.9147 -38.9663
v  -38.9663 30.9147 -38.9663
v  38.9663 23.9231 38.9663
v  -38.9663 23.9231 38.9663
v  38.9663 23.9231 -38.9663
v  -38.9663 23.9231 -38.9663
v  10.7773 23.9231 10.7773
v  -10.7773 23.9231 10.7773
v  10.7773 23.9231 -10.7773
v  -10.7773 23.9231 -10.7773
# 24 vertices

vn -0.5774 -0.5774 0.5774
vn -0.5774 -0.5774 -0.5774
vn 0.5774 -0.5774 -0.5774
vn 0.5774 -0.5774 0.5774
vn -0.5774 0.5774 0.5774
vn 0.5774 0.5774 0.5774
vn 0.5774 0.5774 -0.5774
vn -0.5774 0.5774 -0.5774
vn -0.3015 0.9045 -0.3015
vn 0.3015 0.9045 -0.3015
vn -0.3015 0.9045 0.3015
vn 0.3015 0.9045 0.3015
# 12 vertex normals

vt 1.0000 0.0000 0.0000
vt 1.0000 1.0000 0.0000
vt 0.0000 1.0000 0.0000
vt 0.0000 0.0000 0.0000
# 4 texture coords

o FedTurretStand
g FedTurretStand
usemtl wire_227153153
s 2
f 1/1/1 2/2/2 3/3/3 4/4/4 
s 4
f 5/4/5 6/1/6 7/2/7 8/3/8 
s 8
f 1/4/1 4/1/4 9/2/6 10/3/5 
s 16
f 4/4/4 3/1/3 11/2/7 9/3/6 
s 32
f 3/4/3 2/1/2 12/2/8 11/3/7 
s 64
f 2/4/2 1/1/1 10/2/5 12/3/8 
s off
f 10/4/5 9/1/6 13/1/9 14/4/10 
f 9/1/6 11/2/7 15/2/11 13/1/9 
f 11/2/7 12/3/8 16/3/12 15/2/11 
f 12/3/8 10/4/5 14/4/10 16/3/12 
f 14/4/10 13/1/9 17/1/8 18/4/7 
f 13/1/9 15/2/11 19/2/5 17/1/8 
f 15/2/11 16/3/12 20/3/6 19/2/5 
f 16/3/12 14/4/10 18/4/7 20/3/6 
f 18/4/7 17/1/8 21/1/12 22/4/11 
f 17/1/8 19/2/5 23/2/10 21/1/12 
f 19/2/5 20/3/6 24/3/9 23/2/10 
f 20/3/6 18/4/7 22/4/11 24/3/9 
f 22/4/11 21/1/12 6/1/6 5/4/5 
f 21/1/12 23/2/10 7/2/7 6/1/6 
f 23/2/10 24/3/9 8/3/8 7/2/7 
f 24/3/9 22/4/11 5/4/5 8/3/8 
# 22 polygons

