# 3ds Max Wavefront OBJ Exporter v0.97b - (c)2007 guruware
# File Created: 14.07.2018 16:07:01

#
# object Box004
#

v  13.0779 -10.2300 50.5197
v  16.8056 -7.8518 17.5537
v  16.8056 16.6092 17.5537
v  16.4308 18.9596 20.8681
v  13.0779 9.0124 50.5197
v  10.4200 12.6358 -63.8526
v  0.0000 12.6358 -63.8526
v  0.0000 19.8110 -63.8526
v  10.4200 19.8110 -63.8526
v  9.3258 2.7122 67.6588
v  9.3258 -11.2693 67.6588
v  0.0000 9.0124 50.5197
v  0.0000 2.7122 67.6588
v  5.0171 42.9377 -16.7560
v  7.4746 48.6157 -51.1153
v  0.0000 48.6157 -51.1153
v  0.0000 42.9377 -16.7560
v  92.8481 4.4608 -77.7734
v  94.5922 8.6276 -113.1030
v  94.5922 17.3656 -113.1030
v  92.8468 7.8136 -77.7474
v  15.0993 35.4127 -75.2811
v  19.7130 34.7732 -78.7331
v  20.0922 32.4468 -91.2896
v  0.0000 32.4468 -91.2896
v  0.0000 35.4127 -75.2811
v  19.6088 -1.1548 -75.2811
v  20.0922 0.0000 -91.2896
v  19.6088 31.9505 -75.2811
v  19.5636 32.2800 -73.7855
v  19.5042 34.8403 -71.8170
v  16.9102 20.6440 14.0896
v  16.8573 17.0491 15.8403
v  16.9878 9.4258 11.5189
v  19.4266 22.7725 -69.2463
v  16.9878 -1.4520 11.5189
v  19.4266 4.3743 -69.2463
v  25.5366 48.4882 -95.3183
v  23.8761 40.2012 -50.3848
v  28.5896 40.2035 -50.3576
v  36.4491 41.5094 -57.0784
v  37.8521 48.5115 -95.0447
v  25.7272 -1.4520 11.7623
v  25.7272 9.4258 11.7623
v  22.8056 -10.9886 -40.9443
v  24.9788 -5.7969 -81.9264
v  40.1320 -5.7969 -81.6860
v  38.2961 -10.1829 -47.0636
v  23.5912 -10.9886 -40.9318
v  25.1274 9.2629 -65.9489
v  25.1274 17.8839 -65.9489
v  38.5913 17.8839 -65.5269
v  38.5913 9.2629 -65.5269
v  41.1051 8.8947 -6.9467
v  29.3465 7.2358 -7.8050
v  29.3669 1.2451 -7.7880
v  41.0882 1.9766 -7.0503
v  43.8747 -0.4577 -1.5267
v  43.8700 11.6781 -1.3733
v  41.4876 8.8486 0.3443
v  41.4708 1.9305 0.2407
v  28.1118 7.1896 10.0099
v  28.1322 1.1990 10.0269
v  45.8972 22.7725 -68.5092
v  52.7374 11.3928 -27.5526
v  54.4827 17.3656 -62.9082
v  52.7386 4.4608 -27.5785
v  45.8972 4.3743 -68.5092
v  54.4827 8.6276 -62.9082
v  22.1032 14.3211 -18.5527
v  24.3070 22.6081 -63.4862
v  27.1103 14.3234 -18.5255
v  38.8345 15.6293 -25.2463
v  40.6965 22.6313 -63.2126
v  8.9463 -12.3520 -24.0072
v  11.3719 -6.5570 -70.8493
v  0.0000 -7.8518 17.5537
v  0.0000 -12.3520 -24.0072
v  8.9463 -18.5300 -38.5404
v  11.3719 -12.7350 -73.1528
v  0.0000 -18.5300 -38.5404
v  24.9525 1.9187 -59.1402
v  22.7793 -3.2730 -18.1581
v  40.1057 1.9187 -58.8999
v  38.2698 -2.4674 -24.2775
v  23.5650 -3.2730 -18.1457
v  23.5479 19.7142 -81.5664
v  23.5479 7.4326 -81.5664
v  41.7759 19.7142 -80.9951
v  41.7759 7.4326 -80.9951
v  25.9300 17.8839 -81.4917
v  25.9300 9.2629 -81.4917
v  39.3939 17.8839 -81.0697
v  39.3939 9.2629 -81.0697
v  0.0000 0.0000 -91.2896
v  0.0000 11.0343 -97.0530
v  12.5059 11.0343 -97.0530
v  12.5059 21.4125 -97.0530
v  0.0000 12.6358 -97.0529
v  10.4200 12.6358 -97.0530
v  10.4200 19.8110 -97.0530
v  13.4245 45.1903 -50.3699
v  11.0587 39.8366 -18.0646
v  31.4924 -9.5752 20.0895
v  28.1906 -11.6816 49.2886
v  26.0947 -19.2411 49.0787
v  29.1871 -17.2667 21.7302
v  7.3134 -19.7070 65.8049
v  10.7116 -18.7647 50.2827
v  0.0000 -11.2693 67.6588
v  0.0000 -19.7070 65.8049
v  14.5574 -11.0212 35.1062
v  12.9734 -16.7342 34.9476
v  24.7519 -17.0989 34.0257
v  26.1288 -12.1327 34.1636
v  14.2030 -16.5355 19.4061
v  12.8912 -17.4597 50.1794
v  14.4752 -11.7467 50.3381
v  24.6697 -17.8245 49.2575
v  26.0466 -12.8582 49.3955
v  12.2961 20.0715 17.5537
v  0.0000 -16.5355 19.4061
v  0.0000 -18.7658 50.2974
v  0.0000 20.0715 17.5537
v  0.0000 -12.7350 -73.1528
v  0.0000 -1.1548 -75.2811
v  0.0000 -6.5570 -70.8493
v  0.0000 21.4125 -97.0530
v  0.0000 19.8110 -97.0529
v  -13.0779 -10.2300 50.5197
v  -13.0779 9.0124 50.5197
v  -16.4308 18.9596 20.8681
v  -16.8056 16.6092 17.5537
v  -16.8056 -7.8518 17.5537
v  -10.4200 12.6358 -63.8526
v  -10.4200 19.8110 -63.8526
v  -9.3258 -11.2693 67.6588
v  -9.3258 2.7122 67.6588
v  -5.0171 42.9377 -16.7560
v  -7.4746 48.6157 -51.1153
v  -92.8481 4.4608 -77.7734
v  -92.8468 7.8136 -77.7474
v  -94.5922 17.3656 -113.1030
v  -94.5922 8.6276 -113.1030
v  -15.0993 35.4127 -75.2811
v  -20.0922 32.4468 -91.2896
v  -19.7130 34.7732 -78.7331
v  -19.6088 -1.1548 -75.2811
v  -19.6088 31.9505 -75.2811
v  -20.0922 0.0000 -91.2896
v  -19.5636 32.2800 -73.7855
v  -19.4266 22.7725 -69.2463
v  -16.9878 9.4258 11.5189
v  -16.8573 17.0491 15.8403
v  -16.9102 20.6440 14.0896
v  -19.5042 34.8403 -71.8170
v  -16.9878 -1.4520 11.5189
v  -19.4266 4.3743 -69.2463
v  -25.5366 48.4882 -95.3183
v  -37.8521 48.5115 -95.0447
v  -36.4491 41.5094 -57.0784
v  -28.5896 40.2035 -50.3576
v  -23.8761 40.2012 -50.3848
v  -25.7272 9.4258 11.7623
v  -25.7272 -1.4520 11.7623
v  -22.8056 -10.9886 -40.9443
v  -23.5912 -10.9886 -40.9318
v  -38.2961 -10.1829 -47.0636
v  -40.1320 -5.7969 -81.6860
v  -24.9788 -5.7969 -81.9264
v  -25.1274 9.2629 -65.9489
v  -38.5913 9.2629 -65.5269
v  -38.5913 17.8839 -65.5269
v  -25.1274 17.8839 -65.9489
v  -41.1051 8.8947 -6.9467
v  -41.0882 1.9766 -7.0503
v  -29.3669 1.2451 -7.7880
v  -29.3465 7.2358 -7.8050
v  -43.8747 -0.4577 -1.5267
v  -41.4708 1.9305 0.2407
v  -41.4876 8.8486 0.3443
v  -43.8700 11.6781 -1.3733
v  -28.1118 7.1896 10.0099
v  -28.1322 1.1990 10.0269
v  -45.8972 22.7725 -68.5092
v  -54.4827 17.3656 -62.9082
v  -52.7374 11.3928 -27.5526
v  -52.7386 4.4608 -27.5785
v  -54.4827 8.6276 -62.9082
v  -45.8972 4.3743 -68.5092
v  -24.3070 22.6081 -63.4862
v  -22.1032 14.3211 -18.5527
v  -27.1103 14.3234 -18.5255
v  -38.8345 15.6293 -25.2463
v  -40.6965 22.6313 -63.2126
v  -11.3719 -6.5570 -70.8493
v  -8.9463 -12.3520 -24.0072
v  -11.3719 -12.7350 -73.1528
v  -8.9463 -18.5300 -38.5404
v  -22.7793 -3.2730 -18.1581
v  -24.9525 1.9187 -59.1402
v  -40.1057 1.9187 -58.8999
v  -38.2698 -2.4674 -24.2775
v  -23.5650 -3.2730 -18.1457
v  -23.5479 7.4326 -81.5664
v  -23.5479 19.7142 -81.5664
v  -41.7759 19.7142 -80.9951
v  -41.7759 7.4326 -80.9951
v  -25.9300 9.2629 -81.4917
v  -25.9300 17.8839 -81.4917
v  -39.3939 17.8839 -81.0697
v  -39.3939 9.2629 -81.0697
v  -12.5059 11.0343 -97.0530
v  -12.5059 21.4125 -97.0530
v  -10.4200 12.6358 -97.0530
v  -10.4200 19.8110 -97.0530
v  -11.0587 39.8366 -18.0646
v  -13.4245 45.1903 -50.3699
v  -31.4924 -9.5752 20.0895
v  -29.1871 -17.2667 21.7302
v  -26.0947 -19.2411 49.0787
v  -28.1906 -11.6816 49.2886
v  -10.7116 -18.7647 50.2827
v  -7.3134 -19.7070 65.8049
v  -14.5574 -11.0212 35.1062
v  -26.1288 -12.1327 34.1636
v  -24.7519 -17.0989 34.0257
v  -12.9734 -16.7342 34.9476
v  -14.2030 -16.5355 19.4061
v  -14.4752 -11.7467 50.3381
v  -12.8912 -17.4597 50.1794
v  -24.6697 -17.8245 49.2575
v  -26.0466 -12.8582 49.3955
v  -12.2961 20.0715 17.5537
# 234 vertices

vn 0.8843 0.1766 0.4322
vn 0.8302 -0.1832 -0.5264
vn 0.9984 0.0237 0.0521
vn 0.7021 0.7037 0.1085
vn 0.6937 0.6483 0.3137
vn -0.5774 0.5774 -0.5774
vn 0.0000 0.7071 -0.7071
vn 0.0000 -0.7071 -0.7071
vn -0.5774 -0.5774 -0.5774
vn 0.5370 0.4590 0.7078
vn 0.6414 -0.1330 0.7556
vn 0.0000 0.9419 0.3359
vn 0.0000 0.5703 0.8214
vn 0.2801 0.8949 0.3474
vn 0.2871 0.9487 -0.1323
vn 0.0000 0.9856 -0.1692
vn 0.0000 0.9285 0.3713
vn 0.6564 -0.7368 0.1619
vn 0.2474 -0.5111 -0.8232
vn 0.2465 0.6051 -0.7571
vn 0.8627 0.4059 0.3016
vn 0.1314 0.9618 -0.2402
vn 0.6987 0.7141 0.0432
vn 0.6375 0.5909 -0.4944
vn 0.0000 0.8017 -0.5977
vn 0.0000 0.9407 -0.3392
vn 0.7843 -0.6015 -0.1517
vn 0.6303 -0.6226 -0.4638
vn 0.9997 -0.0000 0.0235
vn 0.9997 0.0000 0.0235
vn 0.8490 0.4694 -0.2425
vn 0.7967 0.4688 0.3814
vn 0.8745 0.3047 0.3773
vn 0.7680 0.6336 -0.0936
vn 0.8890 -0.3060 0.3408
vn 0.7338 -0.6498 -0.1983
vn -0.5191 0.3551 -0.7774
vn -0.6521 0.6941 0.3049
vn 0.1890 0.8608 0.4725
vn 0.6432 0.7292 0.2336
vn 0.5435 0.3659 -0.7555
vn 0.2831 -0.6146 0.7363
vn 0.2652 0.5669 0.7799
vn -0.6928 -0.7188 0.0585
vn -0.5226 -0.0838 -0.8485
vn 0.5578 -0.0869 -0.8254
vn 0.6584 -0.7517 0.0381
vn 0.0777 -0.9877 0.1355
vn 0.6001 0.5774 -0.5537
vn 0.6001 -0.5774 -0.5537
vn -0.5537 -0.5774 -0.6001
vn -0.5537 0.5774 -0.6001
vn -0.5336 -0.6474 0.5443
vn 0.5772 -0.5163 0.6327
vn 0.5161 0.6013 0.6100
vn -0.6065 0.5511 0.5730
vn 0.7026 -0.5986 0.3848
vn 0.6429 0.6136 0.4584
vn 0.4418 -0.4844 0.7551
vn 0.3314 0.5103 0.7936
vn 0.8089 -0.1287 0.5737
vn 0.7931 0.1259 0.5959
vn 0.5643 0.7861 -0.2524
vn 0.8308 0.4679 0.3013
vn 0.3916 0.8582 -0.3319
vn 0.7443 -0.6432 0.1797
vn 0.5620 -0.7361 -0.3773
vn 0.1296 -0.8205 -0.5567
vn 0.0271 0.9540 0.2987
vn -0.6815 0.7201 -0.1304
vn 0.0444 0.9303 0.3642
vn 0.1493 0.9319 0.3306
vn 0.6267 0.7777 -0.0499
vn 0.4819 -0.8678 0.1214
vn 0.5920 -0.4968 -0.6346
vn 0.0000 -0.8099 -0.5866
vn -0.0000 -0.9668 0.2555
vn 0.6109 -0.7843 0.1078
vn 0.5840 -0.4132 -0.6987
vn 0.0000 -0.9929 0.1192
vn -0.7259 -0.6112 -0.3155
vn -0.5419 -0.8385 0.0574
vn 0.7059 -0.6640 -0.2466
vn 0.4960 -0.8635 0.0913
vn 0.0727 -0.9824 0.1720
vn -0.4863 0.5024 -0.7149
vn -0.4863 -0.5024 -0.7149
vn 0.5140 0.5047 -0.6936
vn 0.5140 -0.5047 -0.6936
vn 0.3376 -0.3015 -0.8917
vn 0.3376 0.3015 -0.8917
vn -0.2649 -0.3015 -0.9159
vn -0.2649 0.3015 -0.9159
vn 0.0000 -0.8341 -0.5516
vn 0.0000 -0.2354 -0.9719
vn 0.3171 -0.1667 -0.9336
vn 0.3171 0.1667 -0.9336
vn -0.3015 0.3015 -0.9045
vn -0.3015 -0.3015 -0.9045
vn 0.7996 0.6003 0.0155
vn 0.7484 0.6299 0.2075
vn 0.7317 0.4406 -0.5201
vn 0.6700 0.4475 0.5923
vn 0.4944 -0.6820 0.5390
vn 0.5670 -0.6904 -0.4493
vn 0.4676 -0.7054 0.5327
vn 0.3127 -0.9159 0.2516
vn 0.0000 -0.1064 0.9943
vn -0.0000 -0.7973 0.6035
vn 0.4932 -0.6944 0.5239
vn 0.6738 0.4836 0.5588
vn -0.4687 0.6078 0.6410
vn -0.6423 -0.4962 0.5841
vn 0.0371 -0.7349 -0.6771
vn 0.3812 0.1682 0.9091
vn 0.3454 -0.3810 0.8576
vn -0.1975 0.3520 0.9150
vn -0.2549 -0.3041 0.9179
vn 0.0761 0.9176 0.3903
vn 0.0000 -0.7529 -0.6581
vn 0.0000 -0.9977 -0.0673
vn 0.0000 0.8954 0.4452
vn 0.0000 -0.5014 -0.8652
vn 0.0000 -0.8861 -0.4636
vn 0.0000 -0.1631 -0.9866
vn -0.0000 0.2354 -0.9719
vn -0.8843 0.1766 0.4322
vn -0.6937 0.6483 0.3137
vn -0.7021 0.7037 0.1085
vn -0.9984 0.0237 0.0521
vn -0.8302 -0.1832 -0.5264
vn 0.5774 0.5774 -0.5774
vn 0.5774 -0.5774 -0.5774
vn -0.6414 -0.1330 0.7556
vn -0.5370 0.4590 0.7078
vn -0.2801 0.8949 0.3474
vn -0.2871 0.9487 -0.1323
vn -0.6564 -0.7368 0.1619
vn -0.8627 0.4059 0.3016
vn -0.2465 0.6051 -0.7571
vn -0.2474 -0.5111 -0.8232
vn -0.1314 0.9618 -0.2402
vn -0.6375 0.5909 -0.4944
vn -0.6987 0.7141 0.0432
vn -0.7843 -0.6015 -0.1517
vn -0.9997 -0.0000 0.0235
vn -0.6303 -0.6226 -0.4638
vn -0.9997 0.0000 0.0235
vn -0.7680 0.6336 -0.0936
vn -0.8745 0.3047 0.3773
vn -0.7967 0.4688 0.3814
vn -0.8490 0.4694 -0.2425
vn -0.8890 -0.3060 0.3408
vn -0.7338 -0.6498 -0.1983
vn 0.5191 0.3551 -0.7774
vn -0.5435 0.3659 -0.7555
vn -0.6432 0.7292 0.2336
vn -0.1890 0.8608 0.4725
vn 0.6521 0.6941 0.3049
vn -0.2652 0.5669 0.7799
vn -0.2831 -0.6146 0.7363
vn 0.6928 -0.7188 0.0585
vn -0.0777 -0.9877 0.1355
vn -0.6584 -0.7517 0.0381
vn -0.5578 -0.0869 -0.8254
vn 0.5226 -0.0838 -0.8485
vn -0.6001 0.5774 -0.5537
vn 0.5537 0.5774 -0.6001
vn 0.5537 -0.5774 -0.6001
vn -0.6001 -0.5774 -0.5537
vn 0.5336 -0.6474 0.5443
vn 0.6065 0.5511 0.5730
vn -0.5161 0.6013 0.6100
vn -0.5772 -0.5163 0.6327
vn -0.7026 -0.5986 0.3848
vn -0.3314 0.5103 0.7936
vn -0.4418 -0.4844 0.7551
vn -0.6429 0.6136 0.4584
vn -0.8089 -0.1287 0.5737
vn -0.7931 0.1259 0.5959
vn -0.5643 0.7861 -0.2524
vn -0.3916 0.8582 -0.3319
vn -0.8308 0.4679 0.3013
vn -0.7443 -0.6432 0.1797
vn -0.1296 -0.8205 -0.5567
vn -0.5620 -0.7361 -0.3773
vn 0.6815 0.7201 -0.1304
vn -0.0271 0.9540 0.2987
vn -0.0444 0.9303 0.3642
vn -0.1493 0.9319 0.3306
vn -0.6267 0.7777 -0.0499
vn -0.5920 -0.4968 -0.6346
vn -0.4819 -0.8678 0.1214
vn -0.5840 -0.4132 -0.6987
vn -0.6109 -0.7843 0.1078
vn 0.5419 -0.8385 0.0574
vn 0.7259 -0.6112 -0.3155
vn -0.7059 -0.6640 -0.2466
vn -0.4960 -0.8635 0.0913
vn -0.0727 -0.9824 0.1720
vn 0.4863 -0.5024 -0.7149
vn 0.4863 0.5024 -0.7149
vn -0.5140 0.5047 -0.6936
vn -0.5140 -0.5047 -0.6936
vn -0.3376 0.3015 -0.8917
vn -0.3376 -0.3015 -0.8917
vn 0.2649 -0.3015 -0.9159
vn 0.2649 0.3015 -0.9159
vn -0.3171 -0.1667 -0.9336
vn -0.3171 0.1667 -0.9336
vn 0.3015 0.3015 -0.9045
vn 0.3015 -0.3015 -0.9045
vn -0.7484 0.6299 0.2075
vn -0.7996 0.6003 0.0155
vn -0.7317 0.4406 -0.5201
vn -0.5670 -0.6904 -0.4493
vn -0.4944 -0.6820 0.5390
vn -0.6700 0.4475 0.5923
vn -0.3127 -0.9159 0.2516
vn -0.4676 -0.7054 0.5327
vn -0.4932 -0.6944 0.5239
vn 0.6423 -0.4962 0.5841
vn 0.4687 0.6078 0.6410
vn -0.6738 0.4836 0.5588
vn -0.0371 -0.7349 -0.6771
vn -0.3454 -0.3810 0.8576
vn -0.3812 0.1682 0.9091
vn 0.1975 0.3520 0.9150
vn 0.2549 -0.3041 0.9179
vn -0.0761 0.9176 0.3903
# 230 vertex normals

vt 0.0000 0.0000 0.0000
vt 0.2325 0.0000 0.0000
vt 0.2325 0.8760 0.0000
vt 0.2091 1.0000 0.0000
vt 0.0000 1.0000 0.0000
vt 0.3940 0.0000 0.0000
vt 0.3940 1.0000 0.0000
vt 1.0000 0.0000 0.0000
vt 1.0000 1.0000 0.0000
vt 0.7927 1.0000 0.0000
vt 0.8322 1.0000 0.0000
vt 0.9134 0.2325 0.0000
vt 0.9173 0.8871 0.0000
vt 0.7802 0.8871 0.0000
vt 0.8171 0.2325 0.0000
vt 0.3442 0.0000 0.0000
vt 0.8871 0.0000 0.0000
vt 0.8871 1.0000 0.0000
vt 0.3429 1.0000 0.0000
vt 0.9352 0.8871 0.0000
vt 1.0000 0.9115 0.0000
vt 0.7133 1.0000 0.0000
vt 0.7183 0.8871 0.0000
vt 0.9115 1.0000 0.0000
vt 0.8871 0.9053 0.0000
vt 0.8627 1.0000 0.0000
vt 0.2569 1.0000 0.0000
vt 0.2325 1.0000 0.0000
vt 0.0000 0.8871 0.0000
vt 0.0000 0.2325 0.0000
vt 0.2516 0.2325 0.0000
vt 0.1758 0.2325 0.0000
vt 0.2867 0.0000 0.0000
vt 0.4084 0.0000 0.0000
vt 1.0000 0.2569 0.0000
vt 1.0000 0.8627 0.0000
vt 1.0000 0.8489 0.0000
vt 1.0000 0.3791 0.0000
vt 0.8322 0.0000 0.0000
vt 0.8581 0.0000 0.0000
vt 0.2308 1.0260 0.0000
vt 0.7364 1.0436 0.0000
vt 0.9325 0.2325 0.0000
vt 0.2298 0.2325 0.0000
vt 0.1836 0.0000 0.0000
vt 0.7927 0.0000 0.0000
vt 1.0000 0.2091 0.0000
vt 0.7484 0.2325 0.0000
vt 0.8164 0.0000 0.0000
vt 0.2133 0.8871 0.0000
vt 0.2867 1.0000 0.0000
vt 0.2817 0.8871 0.0000
vt 0.4084 1.0000 0.0000
# 53 texture coords

o Box004
g Box004
s 4
f 1/1/1 2/2/2 3/3/3 4/4/4 5/5/5 
s 1
f 6/1/6 7/6/7 8/7/8 9/5/9 
s 4
f 1/8/1 5/9/5 10/9/10 11/8/11 
s 1
f 5/9/5 12/10/12 13/11/13 10/9/10 
f 14/12/14 15/13/15 16/14/16 17/15/17 
f 18/16/18 19/17/19 20/18/20 21/19/21 
s 2
f 22/20/22 23/21/23 24/9/24 25/22/25 26/23/26 
s 4
f 27/17/27 28/8/28 24/9/24 23/24/23 29/25/29 
f 30/18/30 31/26/31 32/27/32 33/28/29 34/28/33 35/18/34 
f 33/28/29 3/3/3 2/2/2 36/2/35 34/28/33 
f 2/2/2 27/17/27 37/17/36 36/2/35 
f 27/17/27 29/25/29 30/18/30 35/18/34 37/17/36 
s 1
f 38/18/37 39/28/38 40/28/39 41/19/40 42/18/41 
f 34/28/33 36/2/35 43/2/42 44/28/43 
s 2
f 45/2/44 46/17/45 47/17/46 48/16/47 49/2/48 
s 1
f 50/17/49 51/18/50 52/18/51 53/17/52 
f 54/19/53 55/28/54 56/2/55 57/16/56 
s 4
f 58/16/57 59/19/58 60/19/59 61/16/60 
f 59/19/58 44/28/43 62/28/61 60/19/59 
f 44/28/43 43/2/42 63/2/62 62/28/61 
f 43/2/42 58/16/57 61/16/60 63/2/62 
s 2
f 61/16/60 60/19/59 54/19/53 57/16/56 
s 8
f 60/19/59 62/28/61 55/28/54 54/19/53 
s 2
f 62/28/61 63/2/62 56/2/55 55/28/54 
s 8
f 63/2/62 61/16/60 57/16/56 56/2/55 
s 2
f 64/18/63 59/19/58 65/19/64 66/18/65 
s 1
f 59/19/58 58/16/57 67/16/66 65/19/64 
s 2
f 58/16/57 68/17/67 69/17/68 67/16/66 
s 1
f 68/17/67 64/18/63 66/18/65 69/17/68 
s 2
f 66/18/65 65/19/64 21/19/21 20/18/20 
s 1
f 65/19/64 67/16/66 18/16/18 21/19/21 
s 4
f 67/16/66 69/17/68 19/17/19 18/16/18 
s 8
f 69/17/68 66/18/65 20/18/20 19/17/19 
f 35/18/34 34/28/33 70/28/69 71/18/70 
f 34/28/33 44/28/43 72/28/71 70/28/69 
f 44/28/43 59/19/58 73/19/72 72/28/71 
f 59/19/58 64/18/63 74/18/73 73/19/72 
f 64/18/63 35/18/34 71/18/70 74/18/73 
s 2
f 71/18/70 70/28/69 39/28/38 38/18/37 
s 1
f 70/28/69 72/28/71 40/28/39 39/28/38 
f 72/28/71 73/19/72 41/19/40 40/28/39 
s 2
f 73/19/72 74/18/73 42/18/41 41/19/40 
s 4
f 74/18/73 71/18/70 38/18/37 42/18/41 
s 2
f 27/29/27 2/30/2 75/30/74 76/29/75 
s 8
f 2/30/2 77/31/76 78/32/77 75/30/74 
s 4
f 76/29/75 75/30/74 79/30/78 80/29/79 
s 8
f 75/30/74 78/32/77 81/32/80 79/30/78 
f 36/2/35 37/17/36 82/17/81 83/2/82 
s 16
f 37/17/36 68/17/67 84/17/83 82/17/81 
s 2
f 68/17/67 58/16/57 85/16/84 84/17/83 
f 58/16/57 43/2/42 86/2/85 85/16/84 
f 43/2/42 36/2/35 83/2/82 86/2/85 
s 1
f 83/2/82 82/17/81 46/17/45 45/2/44 
s 4
f 82/17/81 84/17/83 47/17/46 46/17/45 
s 1
f 84/17/83 85/16/84 48/16/47 47/17/46 
s 2
f 85/16/84 86/2/85 49/2/48 48/16/47 
f 86/2/85 83/2/82 45/2/44 49/2/48 
s 1
f 37/17/36 35/18/34 87/18/86 88/17/87 
s 8
f 35/18/34 64/18/63 89/18/88 87/18/86 
s 4
f 64/18/63 68/17/67 90/17/89 89/18/88 
s 16
f 68/17/67 37/17/36 88/17/87 90/17/89 
s 2
f 88/17/87 87/18/86 91/18/90 92/17/91 
f 87/18/86 89/18/88 93/18/92 91/18/90 
f 89/18/88 90/17/89 94/17/93 93/18/92 
f 90/17/89 88/17/87 92/17/91 94/17/93 
s 4
f 92/17/91 91/18/90 51/18/50 50/17/49 
s 8
f 91/18/90 93/18/92 52/18/51 51/18/50 
s 4
f 93/18/92 94/17/93 53/17/52 52/18/51 
s 8
f 94/17/93 92/17/91 50/17/49 53/17/52 
f 28/1/28 95/33/94 96/34/95 97/1/96 
s 16
f 24/5/24 28/1/28 97/1/96 98/5/97 
s 8
f 97/1/96 96/34/95 99/6/7 100/1/98 
f 98/5/97 97/1/96 100/1/98 101/5/99 
s 2
f 100/1/98 99/6/7 7/6/7 6/1/6 
s 4
f 101/5/99 100/1/98 6/1/6 9/5/9 
f 32/35/32 31/36/31 102/37/100 103/38/101 
s 2
f 22/20/22 26/23/26 16/14/16 15/13/15 
f 104/30/102 105/1/103 106/1/104 107/30/105 
s 4
f 1/8/1 11/8/11 108/8/106 109/8/107 
s 2
f 11/8/11 110/39/108 111/40/109 108/8/106 
s 1
f 2/30/2 1/1/1 105/1/103 104/30/102 
f 112/1/110 113/1/111 114/1/112 115/1/113 
f 109/1/107 116/30/114 107/30/105 106/1/104 
s 16
f 116/30/114 2/30/2 104/30/102 107/30/105 
s 8
f 1/1/1 109/1/107 117/1/115 118/1/116 
f 109/1/107 106/1/104 119/1/117 117/1/115 
f 106/1/104 105/1/103 120/1/118 119/1/117 
f 105/1/103 1/1/1 118/1/116 120/1/118 
s 2
f 118/1/116 117/1/115 113/1/111 112/1/110 
s 4
f 117/1/115 119/1/117 114/1/112 113/1/111 
s 2
f 119/1/117 120/1/118 115/1/113 114/1/112 
s 4
f 120/1/118 118/1/116 112/1/110 115/1/113 
s 1
f 4/4/4 3/3/3 33/28/29 32/27/32 121/41/119 
f 23/24/23 22/42/22 31/26/31 30/18/30 29/25/29 
f 14/12/14 103/38/101 102/37/100 15/13/15 
f 121/43/119 32/35/32 103/38/101 14/12/14 
f 31/36/31 22/20/22 15/13/15 102/37/100 
f 122/44/120 116/30/114 109/1/107 123/45/121 
f 12/46/12 5/8/5 4/47/4 121/43/119 124/48/122 
s 2
f 110/39/108 11/8/11 10/9/10 13/11/13 
s 1
f 123/49/121 109/8/107 108/8/106 111/40/109 
f 125/50/123 80/29/79 79/30/78 81/32/80 
f 95/51/94 28/5/28 27/29/27 126/52/124 
s 8
f 126/52/124 27/29/27 76/29/75 127/50/125 
s 16
f 127/50/125 76/29/75 80/29/79 125/50/123 
s 8
f 25/51/25 24/5/24 98/5/97 128/53/126 
f 128/53/126 98/5/97 101/5/99 129/7/8 
s 2
f 129/7/8 101/5/99 9/5/9 8/7/8 
s 1
f 124/48/122 121/43/119 14/12/14 17/15/17 
s 16
f 77/31/76 2/30/2 116/30/114 122/44/120 
s 4
f 130/1/127 131/5/128 132/4/129 133/3/130 134/2/131 
s 1
f 135/1/132 136/5/133 8/7/8 7/6/7 
s 4
f 130/8/127 137/8/134 138/9/135 131/9/128 
s 1
f 131/9/128 138/9/135 13/11/13 12/10/12 
f 139/12/136 17/15/17 16/14/16 140/13/137 
f 141/16/138 142/19/139 143/18/140 144/17/141 
s 2
f 145/20/142 26/23/26 25/22/25 146/9/143 147/21/144 
s 4
f 148/17/145 149/25/146 147/24/144 146/9/143 150/8/147 
f 151/18/148 152/18/149 153/28/150 154/28/146 155/27/151 156/26/152 
f 154/28/146 153/28/150 157/2/153 134/2/131 133/3/130 
f 134/2/131 157/2/153 158/17/154 148/17/145 
f 148/17/145 158/17/154 152/18/149 151/18/148 149/25/146 
s 1
f 159/18/155 160/18/156 161/19/157 162/28/158 163/28/159 
f 153/28/150 164/28/160 165/2/161 157/2/153 
s 2
f 166/2/162 167/2/163 168/16/164 169/17/165 170/17/166 
s 1
f 171/17/167 172/17/168 173/18/169 174/18/170 
f 175/19/171 176/16/172 177/2/173 178/28/174 
s 4
f 179/16/175 180/16/176 181/19/177 182/19/178 
f 182/19/178 181/19/177 183/28/179 164/28/160 
f 164/28/160 183/28/179 184/2/180 165/2/161 
f 165/2/161 184/2/180 180/16/176 179/16/175 
s 2
f 180/16/176 176/16/172 175/19/171 181/19/177 
s 8
f 181/19/177 175/19/171 178/28/174 183/28/179 
s 2
f 183/28/179 178/28/174 177/2/173 184/2/180 
s 8
f 184/2/180 177/2/173 176/16/172 180/16/176 
s 2
f 185/18/181 186/18/182 187/19/183 182/19/178 
s 1
f 182/19/178 187/19/183 188/16/184 179/16/175 
s 2
f 179/16/175 188/16/184 189/17/185 190/17/186 
s 1
f 190/17/186 189/17/185 186/18/182 185/18/181 
s 2
f 186/18/182 143/18/140 142/19/139 187/19/183 
s 1
f 187/19/183 142/19/139 141/16/138 188/16/184 
s 4
f 188/16/184 141/16/138 144/17/141 189/17/185 
s 8
f 189/17/185 144/17/141 143/18/140 186/18/182 
f 152/18/149 191/18/187 192/28/188 153/28/150 
f 153/28/150 192/28/188 193/28/189 164/28/160 
f 164/28/160 193/28/189 194/19/190 182/19/178 
f 182/19/178 194/19/190 195/18/191 185/18/181 
f 185/18/181 195/18/191 191/18/187 152/18/149 
s 2
f 191/18/187 159/18/155 163/28/159 192/28/188 
s 1
f 192/28/188 163/28/159 162/28/158 193/28/189 
f 193/28/189 162/28/158 161/19/157 194/19/190 
s 2
f 194/19/190 161/19/157 160/18/156 195/18/191 
s 4
f 195/18/191 160/18/156 159/18/155 191/18/187 
s 2
f 148/29/145 196/29/192 197/30/193 134/30/131 
s 8
f 134/30/131 197/30/193 78/32/77 77/31/76 
s 4
f 196/29/192 198/29/194 199/30/195 197/30/193 
s 8
f 197/30/193 199/30/195 81/32/80 78/32/77 
f 157/2/153 200/2/196 201/17/197 158/17/154 
s 16
f 158/17/154 201/17/197 202/17/198 190/17/186 
s 2
f 190/17/186 202/17/198 203/16/199 179/16/175 
f 179/16/175 203/16/199 204/2/200 165/2/161 
f 165/2/161 204/2/200 200/2/196 157/2/153 
s 1
f 200/2/196 166/2/162 170/17/166 201/17/197 
s 4
f 201/17/197 170/17/166 169/17/165 202/17/198 
s 1
f 202/17/198 169/17/165 168/16/164 203/16/199 
s 2
f 203/16/199 168/16/164 167/2/163 204/2/200 
f 204/2/200 167/2/163 166/2/162 200/2/196 
s 1
f 158/17/154 205/17/201 206/18/202 152/18/149 
s 8
f 152/18/149 206/18/202 207/18/203 185/18/181 
s 4
f 185/18/181 207/18/203 208/17/204 190/17/186 
s 16
f 190/17/186 208/17/204 205/17/201 158/17/154 
s 2
f 205/17/201 209/17/205 210/18/206 206/18/202 
f 206/18/202 210/18/206 211/18/207 207/18/203 
f 207/18/203 211/18/207 212/17/208 208/17/204 
f 208/17/204 212/17/208 209/17/205 205/17/201 
s 4
f 209/17/205 171/17/167 174/18/170 210/18/206 
s 8
f 210/18/206 174/18/170 173/18/169 211/18/207 
s 4
f 211/18/207 173/18/169 172/17/168 212/17/208 
s 8
f 212/17/208 172/17/168 171/17/167 209/17/205 
f 150/1/147 213/1/209 96/34/95 95/33/94 
s 16
f 146/5/143 214/5/210 213/1/209 150/1/147 
s 8
f 213/1/209 215/1/211 99/6/7 96/34/95 
f 214/5/210 216/5/212 215/1/211 213/1/209 
s 2
f 215/1/211 135/1/132 7/6/7 99/6/7 
s 4
f 216/5/212 136/5/133 135/1/132 215/1/211 
f 155/35/151 217/38/213 218/37/214 156/36/152 
s 2
f 145/20/142 140/13/137 16/14/16 26/23/26 
f 219/30/215 220/30/216 221/1/217 222/1/218 
s 4
f 130/8/127 223/8/219 224/8/220 137/8/134 
s 2
f 137/8/134 224/8/220 111/40/109 110/39/108 
s 1
f 134/30/131 219/30/215 222/1/218 130/1/127 
f 225/1/221 226/1/222 227/1/223 228/1/224 
f 223/1/219 221/1/217 220/30/216 229/30/225 
s 16
f 229/30/225 220/30/216 219/30/215 134/30/131 
s 8
f 130/1/127 230/1/226 231/1/227 223/1/219 
f 223/1/219 231/1/227 232/1/228 221/1/217 
f 221/1/217 232/1/228 233/1/229 222/1/218 
f 222/1/218 233/1/229 230/1/226 130/1/127 
s 2
f 230/1/226 225/1/221 228/1/224 231/1/227 
s 4
f 231/1/227 228/1/224 227/1/223 232/1/228 
s 2
f 232/1/228 227/1/223 226/1/222 233/1/229 
s 4
f 233/1/229 226/1/222 225/1/221 230/1/226 
s 1
f 132/4/129 234/41/230 155/27/151 154/28/146 133/3/130 
f 147/24/144 149/25/146 151/18/148 156/26/152 145/42/142 
f 139/12/136 140/13/137 218/37/214 217/38/213 
f 234/43/230 139/12/136 217/38/213 155/35/151 
f 156/36/152 218/37/214 140/13/137 145/20/142 
f 122/44/120 123/45/121 223/1/219 229/30/225 
f 12/46/12 124/48/122 234/43/230 132/47/129 131/8/128 
s 2
f 110/39/108 13/11/13 138/9/135 137/8/134 
s 1
f 123/49/121 111/40/109 224/8/220 223/8/219 
f 125/50/123 81/32/80 199/30/195 198/29/194 
f 95/51/94 126/52/124 148/29/145 150/5/147 
s 8
f 126/52/124 127/50/125 196/29/192 148/29/145 
s 16
f 127/50/125 125/50/123 198/29/194 196/29/192 
s 8
f 25/51/25 128/53/126 214/5/210 146/5/143 
f 128/53/126 129/7/8 216/5/212 214/5/210 
s 2
f 129/7/8 8/7/8 136/5/133 216/5/212 
s 1
f 124/48/122 17/15/17 139/12/136 234/43/230 
s 16
f 77/31/76 122/44/120 229/30/225 134/30/131 
# 220 polygons

